<svg xmlns="http://www.w3.org/2000/svg" xmlns:xlink="http://www.w3.org/1999/xlink" xmlns:lucid="lucid" width="1360" height="1021.71"><g transform="translate(-200 -278.28549522418325)" lucid:page-tab-id="ozTZpnLTIE5I"><path d="M0 0h1760v1360H0z" fill="#fff"/><path d="M220 298.3h1320V1280H220z" stroke="#3a414a" stroke-width="2" fill="#b2b2b2"/><path d="M220 298.3h56v56h-56v-56z" stroke="#fff" stroke-opacity="0" fill="#3a414a"/><path d="M238.22 324.16c-.04.47.04.87.17 1.33.1.37.28.7.48 1.06.04.1.08.2.08.34 0 .2-.12.35-.28.45l-.95.62c-.12.08-.24.12-.37.12-.16 0-.33-.08-.45-.22-.2-.2-.36-.42-.52-.7-.17-.24-.3-.52-.45-.86-1.1 1.38-2.63 2.1-4.4 2.07-1.15.04-2.13-.32-2.96-1.1-.78-.78-1.14-1.75-1.1-2.85-.04-1.22.4-2.27 1.35-3.08 1.07-.84 2.3-1.22 3.66-1.15.57 0 1.02.03 1.6.1.57.1 1.1.2 1.72.34v-1.1c.08-.88-.16-1.67-.7-2.38-.74-.56-1.56-.78-2.46-.68-.53 0-1.03.05-1.6.18-.58.14-1.03.3-1.6.52l-.5.2h-.24c-.2 0-.33-.17-.33-.47v-.74c0-.2.04-.35.12-.52.12-.15.24-.25.4-.32.66-.3 1.2-.5 1.9-.68.77-.2 1.47-.3 2.3-.28 1.47-.12 2.78.27 3.9 1.2.94 1.05 1.35 2.3 1.22 3.68zm-6.07 2.27c.57 0 1.06-.08 1.6-.28.57-.2 1.03-.5 1.44-.95.23-.28.4-.58.48-.94.12-.45.16-.85.16-1.3v-.67c-.53-.1-.94-.18-1.44-.22H233c-.8-.07-1.55.12-2.2.6-.54.44-.8 1.03-.75 1.72-.04.6.13 1.15.54 1.6.44.36.97.5 1.55.43zm12 1.6c-.22.02-.42-.02-.6-.15-.15-.17-.23-.35-.32-.6l-3.5-11.5-.1-.62c0-.24.1-.36.36-.36h1.47c.2-.02.37.02.57.14.17.18.25.36.3.6l2.5 9.95 2.38-9.94c0-.24.08-.44.28-.6.17-.12.37-.16.58-.15h1.2c.24 0 .4.04.6.15.17.18.25.37.3.6l2.33 9.94 2.56-10c.04-.23.16-.42.33-.6.15-.1.36-.16.56-.13h1.4c.16-.02.33.1.37.3v.3s0 .2-.12.37l-3.6 11.52c-.05.23-.13.43-.3.6-.2.1-.36.15-.57.13h-1.27c-.25.02-.46-.03-.62-.16-.16-.17-.25-.37-.3-.6l-2.3-9.6-2.28 9.6c-.05.23-.13.43-.3.6-.2.13-.4.18-.6.15zm19.2.4c-.82 0-1.52-.08-2.3-.27-.65-.12-1.15-.3-1.72-.6-.2-.1-.37-.23-.45-.4-.08-.15-.12-.3-.12-.45v-.73c0-.3.12-.46.32-.46h.3l.36.16c.58.24 1.03.4 1.6.5.62.15 1.15.2 1.8.2.8.06 1.5-.1 2.2-.5.48-.3.77-.8.73-1.4.04-.4-.13-.75-.38-1.03-.46-.4-.95-.65-1.52-.8l-2.18-.68c-.94-.25-1.73-.73-2.38-1.5-.5-.65-.74-1.35-.74-2.18 0-.6.12-1.08.4-1.6.3-.5.63-.9 1.08-1.23.5-.38.98-.6 1.6-.77.66-.18 1.2-.27 1.9-.25.32-.03.6-.03.97 0l1 .15.8.24.67.26c.16.12.28.23.45.38.08.16.12.3.12.5v.7c0 .32-.12.48-.37.48-.2-.03-.37-.1-.57-.2-.95-.4-1.8-.6-2.88-.56-.7-.05-1.3.08-1.97.4-.5.3-.74.8-.7 1.35 0 .42.13.77.45 1.07.5.4 1 .64 1.6.8l2.1.7c.95.23 1.7.7 2.3 1.42.5.62.7 1.3.7 2.08 0 .64-.13 1.17-.37 1.73-.3.56-.62.97-1.1 1.34-.5.4-1 .65-1.6.84-.75.24-1.4.34-2.15.35zM266.1 335.77c-5.6 3.8-11.36 5.57-18.15 5.56-8.54.04-15.82-2.74-22.16-8.45-.5-.42 0-1 .48-.68 7.07 4.06 14.03 5.9 22.2 5.9 6.1-.04 11.3-1.1 16.93-3.46.83-.35 1.52.54.7 1.13z" stroke="#fff" stroke-opacity="0" fill="#fff"/><path d="M268.16 333.48c-.64-.8-4.16-.38-5.75-.2-.46 0-.53-.35-.1-.66 2.8-1.97 7.42-1.4 8-.74.6.67-.14 5.3-2.78 7.5-.4.33-.78.14-.6-.3.54-1.5 1.86-4.83 1.24-5.6z" stroke="#fff" stroke-opacity="0" fill="#fff"/><use xlink:href="#a" transform="matrix(1,0,0,1,291,318.28549522418325) translate(0 12.444444444444446)"/><use xlink:href="#b" transform="matrix(1,0,0,1,291,318.28549522418325) translate(39.66666666666667 12.444444444444446)"/><path d="M970.48 738.47h389.1v401.55h-389.1z" fill="#fff" fill-opacity="0"/><path d="M982.64 738.47h8.1m8.1 0h8.12m8.1 0h8.1m8.1 0h8.12m8.1 0h8.1m8.12 0h8.1m8.1 0h8.12m8.1 0h8.1m8.12 0h8.1m8.1 0h8.12m8.1 0h8.1m8.1 0h8.12m8.1 0h8.1m8.12 0h8.1m8.1 0h8.12m8.1 0h8.1m8.12 0h8.1m8.1 0h8.12m8.1 0h8.1m8.1 0h8.12m8.1 0h8.1m8.12 0h8.1m8.1 0h8.12m8.1 0h4.06v4.02m0 8.02v8.03m0 8.03v8.03m0 8.04v8.03m0 8.03v8.03m0 8.04v8.03m0 8.03v8.03m0 8.03v8.02m0 8.03v8.03m0 8.03v8.04m0 8.03v8.03m0 8.04v8.03m0 8.03v8.03m0 8.03v8.03m0 8.02v8.03m0 8.03v8.03m0 8.05v8.02m0 8.04v8.04m0 8.03v8.03m0 8.03v8.03m0 8.03v8.02m0 8.03v8.03m0 8.04v8.03m0 8.03v8.03m0 8.04v8.03m0 8.03v4.02h-4.06m-8.1 0h-8.1m-8.1 0h-8.12m-8.1 0h-8.1m-8.12 0h-8.1m-8.1 0h-8.12m-8.1 0h-8.1m-8.12 0h-8.1m-8.1 0h-8.12m-8.1 0h-8.1m-8.1 0h-8.12m-8.1 0h-8.1m-8.12 0h-8.1m-8.1 0h-8.12m-8.1 0h-8.1m-8.12 0h-8.1m-8.1 0h-8.12m-8.1 0h-8.1m-8.12 0h-8.1m-8.1 0h-8.1m-8.12 0h-8.1m-8.1 0h-8.12m-8.1 0h-8.1m-8.12 0h-8.1m-8.1 0h-4.06V1136m0-8.03v-8.03m0-8.03v-8.02m0-8.03v-8.03m0-8.04v-8.03m0-8.03v-8.03m0-8.04v-8.03m0-8.03v-8.03m0-8.03v-8.03m0-8.02v-8.03m0-8.04v-8.02m0-8.03v-8.03m0-8.03v-8.04m0-8.03v-8.03m0-8.03v-8.03m0-8.03v-8.03m0-8.03V879m0-8.02v-8.03m0-8.03v-8.03m0-8.04v-8.03m0-8.03v-8.03m0-8.03v-8.04m0-8.03v-8.03m0-8.03v-8.02m0-8.03v-8.03m0-8.03v-4.03h4.05" stroke="#147eba" stroke-width="2" fill="none"/><use xlink:href="#c" transform="matrix(1,0,0,1,970.4769696548658,758.472906451897) translate(178.60185185185185 12.444444444444446)"/><path d="M403.04 738.47h389.1v401.55h-389.1z" fill="#fff" fill-opacity="0"/><path d="M415.2 738.47h8.1m8.1 0h8.12m8.1 0h8.1m8.12 0h8.1m8.1 0h8.1m8.12 0h8.1m8.1 0h8.12m8.1 0h8.1m8.12 0h8.1m8.1 0h8.12m8.1 0h8.1m8.12 0h8.1m8.1 0h8.12m8.1 0h8.1m8.1 0h8.12m8.1 0h8.1m8.12 0h8.1m8.1 0h8.12m8.1 0h8.1m8.12 0h8.1m8.1 0h8.1m8.12 0h8.1m8.1 0H780m8.1 0h4.06v4.02m0 8.02v8.03m0 8.03v8.03m0 8.04v8.03m0 8.03v8.03m0 8.04v8.03m0 8.03v8.03m0 8.03v8.02m0 8.03v8.03m0 8.03v8.04m0 8.03v8.03m0 8.04v8.03m0 8.03v8.03m0 8.03v8.03m0 8.02v8.03m0 8.03v8.03m0 8.05v8.02m0 8.04v8.04m0 8.03v8.03m0 8.03v8.03m0 8.03v8.02m0 8.03v8.03m0 8.04v8.03m0 8.03v8.03m0 8.04v8.03m0 8.03v4.02h-4.05m-8.12 0h-8.1m-8.1 0h-8.12m-8.1 0h-8.1m-8.12 0h-8.1m-8.1 0H707m-8.1 0h-8.1m-8.12 0h-8.1m-8.1 0h-8.1m-8.12 0h-8.1m-8.1 0h-8.12m-8.1 0h-8.1m-8.12 0h-8.1m-8.1 0h-8.12m-8.1 0h-8.1m-8.12 0h-8.1m-8.1 0h-8.1m-8.12 0h-8.1m-8.1 0h-8.12m-8.1 0h-8.1m-8.12 0h-8.1m-8.1 0h-8.12m-8.1 0h-8.1m-8.12 0h-8.1m-8.1 0h-4.06V1136m0-8.03v-8.03m0-8.03v-8.02m0-8.03v-8.03m0-8.04v-8.03m0-8.03v-8.03m0-8.04v-8.03m0-8.03v-8.03m0-8.03v-8.03m0-8.02v-8.03m0-8.04v-8.02m0-8.03v-8.03m0-8.03v-8.04m0-8.03v-8.03m0-8.03v-8.03m0-8.03v-8.03m0-8.03V879m0-8.02v-8.03m0-8.03v-8.03m0-8.04v-8.03m0-8.03v-8.03m0-8.03v-8.04m0-8.03v-8.03m0-8.03v-8.02m0-8.03v-8.03m0-8.03v-4.03h4.05" stroke="#147eba" stroke-width="2" fill="none"/><use xlink:href="#d" transform="matrix(1,0,0,1,403.03856727663594,758.472906451897) translate(176.6141975308642 12.444444444444446)"/><path d="M1129.64 833.56h68.8v71.74h-68.8v-71.74z" stroke="#fff" stroke-opacity="0" stroke-width="2" fill="#3f8624"/><path d="M1186 871.86c-.26-1.5-1.9-2.54-3.03-3.3-.36-.25-1.32-.63-1.4-.96 0-.25 0-.48.08-.72l.92-6.85.8-6.08c.2-1.82-.62-3.07-2.07-4.12-2.95-2.16-6.82-3.02-10.3-3.6-4.56-.76-8.56-.9-13.18-.43-4.18.3-7.65 1.15-11.52 2.88-1.93.96-4.53 2.44-4.17 5.03.87 7.76 1.97 15.52 2.98 23.28.45 3.54.94 7.1 1.38 10.63.17 1.5.96 2.65 2.28 3.22 2.82 1.58 6.33 2.06 9.54 2.35 4.44.43 8.23.3 12.62-.58 2.64-.5 7.56-1.35 8-4.8.53-4.26 1.1-8.52 1.63-12.78l.22-1.3c1.5.4 5.76 1.2 5.23-1.86zm-23.3-24.43c5.54 0 11.83.67 16.75 3.5.8.43 2.55 1.4 2.02 2.58-.53 1.16-2.2 1.74-3.2 2.17-1.5.57-2.87.96-4.45 1.3-6.86 1.43-12.92 1.57-19.87.42-3.12-.34-5.7-1.16-8.53-2.6-.66-.42-1.76-1.1-1.45-2.05.22-.53.57-.9 1.06-1.2 2.15-1.44 4.13-2.3 6.63-2.78 3.8-.95 7.13-1.4 11.04-1.34zm14.42 40.33c-.18 1.1-1.93 1.67-2.77 1.96-1.85.67-3.47 1.05-5.4 1.3-4.27.57-7.97.57-12.27 0-2.7-.25-4.93-.87-7.35-2.1-.65-.3-1.05-.92-1.1-1.64-.92-7.62-1.93-15.18-2.94-22.75l-1.07-8.24c2.2 1.24 4.23 2 6.7 2.44 2.67.57 4.9.86 7.64 1.05 5.27.37 9.8.13 15.03-.87 2.77-.43 5.06-1.25 7.52-2.64l-1.93 14.98c-4.94-1.67-8.98-3.35-13.6-5.7l-.57-.28c-.26-.2-.18-.1-.3-.4-.23-.56-.27-.94-.76-1.42-.43-.34-.92-.48-1.45-.44-1.14.05-2.02 1.1-1.93 2.3.08 1.15 1.1 2.06 2.23 1.97.3-.04.57-.14.93-.28.35-.1.35-.1.7.1 4.7 2.4 8.8 4.16 13.76 5.9.7.23.7 0 .7.6-.04.5-.1.92-.17 1.4l-.58 4.55zm-14.16-22.66c0 .3-.35.24-.44.1-.13-.2.44-.43.44-.1zm18.07 6.7l.27-2.1c.92.58 2.46 1.4 2.9 2.44-.92.4-2.33-.1-3.17-.33z" stroke="#fff" stroke-opacity="0" stroke-width="2" fill="#fff"/><use xlink:href="#e" transform="matrix(1,0,0,1,1099.639988448074,914.298482348704) translate(48.96604938271605 12.444444444444446)"/><path d="M717 373.88h-16.8c-.77 0-1.38-.63-1.38-1.38v-2.06c0-7.7 5.05-14.14 12.55-15.95.35-.1.67-.05 1 .13 2.2 1.18 4.6 1.18 6.8 0 .32-.18.63-.22.98-.14 1.97.48 3.6 1.18 5.27 2.3l-1.55 2.3c-1.25-.82-2.42-1.37-3.88-1.75-2.8 1.28-5.67 1.28-8.47 0-5.98 1.67-9.95 6.9-9.95 13.1v.67H717z" stroke="#fff" stroke-opacity="0" fill="#3a414a"/><path d="M715.74 358.2c-5 0-9.06-4.04-9.06-9.02 0-5 4.06-9.04 9.06-9.04 5-.06 9.07 3.96 9.13 8.93.03 3.45-1.7 6.4-4.75 8.02-1.4.77-2.76 1.1-4.38 1.1zm0-15.3c-3.5 0-6.35 2.8-6.36 6.28 0 2.36 1.2 4.4 3.3 5.5 1.97 1.07 4.15 1.07 6.13 0 2.12-1.13 3.34-3.2 3.3-5.6-.03-3.45-2.9-6.2-6.36-6.18zM762.3 373.88h-16.8v-2.76h15.42v-.68c0-6.2-3.97-11.43-9.94-13.1-2.8 1.3-5.68 1.3-8.48 0-1.46.4-2.66.97-3.9 1.84l-1.6-2.27c1.7-1.15 3.32-1.9 5.3-2.4.34-.07.68-.04 1 .14 2.2 1.18 4.6 1.18 6.83 0 .32-.18.64-.2.98-.14 7.5 1.8 12.57 8.25 12.57 15.94v2.06c0 .75-.62 1.36-1.36 1.38z" stroke="#fff" stroke-opacity="0" fill="#3a414a"/><path d="M746.7 358.2c-5.03 0-9.1-4.1-9.1-9.1 0-5.04 4.1-9.1 9.15-9.1 5.03 0 9.1 4.1 9.1 9.12 0 3.43-1.73 6.34-4.74 7.98-1.42.77-2.78 1.1-4.4 1.1zm0-15.3c-3.48-.02-6.32 2.78-6.34 6.28-.02 2.37 1.2 4.4 3.28 5.5 1.98 1.07 4.17 1.07 6.15 0 2.13-1.13 3.35-3.2 3.32-5.63-.08-3.46-2.94-6.23-6.4-6.15zM753.28 404.86h-44.13c-.75 0-1.36-.6-1.36-1.38v-2.92c-.06-10.6 6.97-19.53 17.28-22.04.37-.1.7-.05 1.03.1 3.3 1.78 6.9 1.78 10.22 0 .28-.15.6-.2.98-.1 10.36 2.5 17.4 11.4 17.34 22.04v2.93c0 .75-.6 1.36-1.36 1.36zm-42.73-2.75h41.33v-1.54c0-9.13-5.9-16.8-14.76-19.2-3.9 1.9-7.97 1.9-11.86 0-8.85 2.4-14.7 10.07-14.7 19.2z" stroke="#fff" stroke-opacity="0" fill="#3a414a"/><path d="M731.26 382.68c-2.2 0-4.05-.47-6-1.5-6-3.3-8.22-10.83-4.93-16.85 3.3-6 10.83-8.2 16.87-4.94 6 3.3 8.22 10.8 4.94 16.83-1.2 2.18-2.75 3.75-4.94 4.94-1.9 1.04-3.78 1.5-5.94 1.5zm0-21.7c-3.6-.05-6.7 1.76-8.45 4.94-2.47 4.58-.78 10.34 3.8 12.84 3 1.6 6.27 1.6 9.26 0 3.2-1.74 5.04-4.83 5-8.45-.08-5.2-4.38-9.4-9.6-9.32z" stroke="#fff" stroke-opacity="0" fill="#3a414a"/><path d="M762.68 373.88h-32.2c-.55 0-1-.45-1-1v-2.14c-.03-7.74 5.1-14.25 12.62-16.08.27-.07.5-.04.75.08 2.4 1.3 5.02 1.3 7.45 0 .2-.12.45-.15.72-.08 7.55 1.8 12.68 8.32 12.65 16.08v2.13c0 .56-.45 1-1 1zm-31.18-2h30.15v-1.14c0-6.66-4.3-12.26-10.77-14-2.83 1.37-5.8 1.37-8.64 0-6.47 1.74-10.74 7.34-10.74 14z" stroke="#fff" stroke-opacity="0" stroke-width=".73" fill="#fff" fill-opacity="0"/><path d="M732 373.88h-32.2c-.54 0-.98-.45-.98-1v-2.14c-.04-7.74 5.1-14.25 12.6-16.08.28-.07.52-.04.76.08 2.4 1.3 5.03 1.3 7.45 0 .2-.12.45-.15.72-.08 7.55 1.8 12.68 8.32 12.65 16.08v2.13c0 .56-.45 1-1 1zm-31.17-2h30.15v-1.14c0-6.66-4.3-12.26-10.77-14-2.82 1.37-5.8 1.37-8.63 0-6.46 1.74-10.74 7.34-10.74 14z" stroke="#fff" stroke-opacity="0" stroke-width=".73" fill="#fff" fill-opacity="0"/><path d="M847.94 414.48h65.8v64.85h-65.8v-64.85z" stroke="#fff" stroke-opacity="0" fill="#693cc5"/><path d="M871.88 451.6c1.17.42 2.2.6 3.44.64.78.07 1.47-.12 2.12-.58.5-.46.75-1.04.72-1.73.06-.7-.16-1.33-.68-1.84-.7-.46-1.42-.64-2.25-.58-1 .02-1.83.07-2.8.18v-1.22l.34-5.34h6.6v1.44h-5.1l-.25 3.62c.6-.12 1.13-.17 1.76-.17 1.16-.07 2.17.27 3.05 1 .8.77 1.17 1.73 1.1 2.82.04 1.12-.4 2.1-1.27 2.82-1 .8-2.12 1.14-3.4 1.1-1.25 0-2.3-.23-3.45-.73zM886.22 446.42H886.53c1.1-.08 2.04.22 2.87.92.77.7 1.12 1.58 1.07 2.6.03 1.1-.42 2.06-1.3 2.77-1.03.77-2.14 1.1-3.43 1.05-1.2 0-2.25-.23-3.36-.7v-1.44c1.13.4 2.15.6 3.36.64.8.07 1.48-.14 2.12-.6.53-.45.8-1.04.74-1.72 0-1.44-.92-2.17-2.76-2.17-.62 0-1.14.03-1.76.1v-1.18l3.8-4.1h-5.3v-1.45h7.36v1.4z" stroke="#fff" stroke-opacity="0" fill="#fff"/><path d="M880.84 463.33c-.17 0-.3-.03-.45-.12-3-1.72-5.8-2.78-9.2-3.45-1.86-.32-7.9-1.73-7.9-6.05 0-1.95.78-3.26 1.76-4.9 1.5-2.2 2.28-4.44 2.4-7.1 0-2.56-.68-4.7-2.12-6.85-.2-.32-.17-.7.07-1.02l1.42-1.73c.28-.32.73-.42 1.12-.2 1.9 1.1 3.7 1.57 5.92 1.6 2.42.04 4.5-.6 6.46-2 .3-.23.73-.23 1 0 2 1.4 4.08 2.04 6.5 2 2.17-.03 4.03-.54 5.92-1.6.4-.22.85-.12 1.13.2l1.4 1.73c.24.28.28.7.07 1.02-1.44 2.1-2.07 4.3-2.1 6.85 0 3.07 1.26 5.18 2.38 7.1.98 1.64 1.75 2.95 1.75 4.9 0 4.32-6.03 5.73-7.9 6.05-3.4.67-6.2 1.7-9.17 3.46-.14.1-.28.13-.46.13zm-13.67-28.96c1.36 2.3 2 4.58 2 7.23 0 3.56-1.44 6.02-2.63 7.97-.88 1.54-1.48 2.56-1.48 4.04 0 3.08 5.37 4.2 6.42 4.4 3.47.66 6.28 1.72 9.33 3.45 3.06-1.73 5.9-2.8 9.33-3.46 1.1-.2 6.46-1.32 6.46-4.4 0-1.47-.6-2.5-1.52-4.03-1.16-1.95-2.63-4.4-2.63-7.97.03-2.65.66-4.93 2.07-7.23l-.56-.67c-1.97 1-3.9 1.47-6.14 1.47-2.6.03-4.8-.58-7-1.98-2.2 1.4-4.43 2-7.03 1.97-2.25 0-4.14-.48-6.14-1.47z" stroke="#fff" stroke-opacity="0" fill="#fff"/><path d="M880.85 468.52c-.22 0-.4-.04-.57-.17-3.1-2.2-6.13-3.54-9.86-4.32-7.23-1.3-11.52-5.23-11.52-10.4.1-2.65.8-4.9 2.32-7.1.96-1.6 1.75-2.98 1.75-4.88-.08-2.64-1.18-4.84-3.2-6.62-.4-.25-.48-.82-.17-1.2.04 0 .04-.05.04-.05 0-.1 5.17-6.18 6.36-7.73.13-.26.4-.4.65-.4.3 0 .53.1.75.3 1.67 1.95 3.8 3.03 6.44 3.16 2.46 0 4.38-1.07 6.23-3.44.35-.4.96-.48 1.35-.13l.14.13c1.84 2.42 3.77 3.45 6.22 3.45 2.63-.12 4.78-1.2 6.44-3.14.22-.22.44-.3.75-.3.26 0 .52.13.65.4 1.2 1.54 6.3 7.63 6.36 7.72.13.17.22.4.17.65 0 .26-.13.43-.3.6-2.02 1.78-3.1 3.98-3.2 6.62 0 1.9.83 3.28 1.75 4.88 1.53 2.2 2.24 4.45 2.32 7.1 0 5.17-4.3 9.1-11.52 10.4-3.73.78-6.75 2.07-9.86 4.32-.13.1-.3.17-.5.17zm-19.24-34.26c2.12 2.07 3.17 4.5 3.2 7.38 0 2.38-1 4.1-2 5.8-1.05 1.85-2.06 3.54-2.06 6.22 0 6.3 7.67 8.16 10 8.6 3.8.78 6.9 2.07 10.1 4.23 3.17-2.17 6.28-3.46 10.1-4.24 2.32-.44 10-2.3 10-8.6 0-2.68-1.02-4.32-2.07-6.23-1-1.72-2.02-3.45-2.02-5.8.04-2.88 1.1-5.3 3.2-7.37-1.18-1.4-3.8-4.54-5.2-6.3-2 1.9-4.3 2.88-7.03 2.97-2.85 0-5.26-1.17-7-3.33-1.8 2.16-4.22 3.33-7.07 3.33-2.7-.1-5.03-1.08-7-2.98-1.28 1.77-3.95 4.92-5.13 6.3z" stroke="#fff" stroke-opacity="0" fill="#fff"/><use xlink:href="#f" transform="matrix(1,0,0,1,817.9408329966116,488.3321992254769) translate(15.101851851851848 12.444444444444446)"/><use xlink:href="#g" transform="matrix(1,0,0,1,817.9408329966116,488.3321992254769) translate(78.14506172839506 12.444444444444446)"/><path d="M764.17 372.43h104.67a12 12 0 0 1 12 12v29.55" stroke="#232f3e" fill="none"/><path d="M764.18 372.93h-.53l.02-.06v-.94h.5zM881.34 414.48h-1v-.52h1z" stroke="#232f3e" stroke-width=".05" fill="#232f3e"/><path d="M1016.5 373.88h-16.8c-.77 0-1.38-.63-1.38-1.38v-2.06c0-7.7 5.05-14.14 12.55-15.95.35-.1.67-.05 1 .13 2.2 1.18 4.6 1.18 6.8 0 .32-.18.63-.22.98-.14 1.97.48 3.6 1.18 5.27 2.3l-1.55 2.3c-1.25-.82-2.42-1.37-3.88-1.75-2.8 1.28-5.67 1.28-8.47 0-5.98 1.67-9.95 6.9-9.95 13.1v.67h15.43z" stroke="#fff" stroke-opacity="0" fill="#3a414a"/><path d="M1015.24 358.2c-5 0-9.06-4.04-9.06-9.02 0-5 4.06-9.04 9.06-9.04 5-.06 9.07 3.96 9.13 8.93.03 3.45-1.7 6.4-4.75 8.02-1.4.77-2.76 1.1-4.38 1.1zm0-15.3c-3.5 0-6.35 2.8-6.36 6.28 0 2.36 1.2 4.4 3.3 5.5 1.97 1.07 4.15 1.07 6.13 0 2.12-1.13 3.34-3.2 3.3-5.6-.03-3.45-2.9-6.2-6.36-6.18zM1061.8 373.88H1045v-2.76h15.42v-.68c0-6.2-3.97-11.43-9.94-13.1-2.8 1.3-5.68 1.3-8.48 0-1.46.4-2.66.97-3.9 1.84l-1.6-2.27c1.7-1.15 3.32-1.9 5.3-2.4.34-.07.68-.04 1 .14 2.2 1.18 4.6 1.18 6.83 0 .32-.18.64-.2.98-.14 7.5 1.8 12.57 8.25 12.57 15.94v2.06c0 .75-.62 1.36-1.36 1.38z" stroke="#fff" stroke-opacity="0" fill="#3a414a"/><path d="M1046.2 358.2c-5.03 0-9.1-4.1-9.1-9.1 0-5.04 4.1-9.1 9.15-9.1 5.03 0 9.1 4.1 9.1 9.12 0 3.43-1.73 6.34-4.74 7.98-1.4.77-2.78 1.1-4.4 1.1zm0-15.3c-3.48-.02-6.32 2.78-6.34 6.28-.02 2.37 1.2 4.4 3.3 5.5h-.02c1.98 1.07 4.17 1.07 6.15 0 2.13-1.13 3.35-3.2 3.32-5.63-.08-3.46-2.94-6.23-6.4-6.15zM1052.78 404.86h-44.13c-.75 0-1.36-.6-1.36-1.38v-2.92c-.06-10.6 6.97-19.53 17.28-22.04.37-.1.7-.05 1.03.1 3.3 1.78 6.9 1.78 10.22 0 .28-.15.6-.2 1-.1 10.34 2.5 17.37 11.4 17.32 22.04v2.93c0 .75-.6 1.36-1.36 1.36zm-42.73-2.75h41.33v-1.54c0-9.13-5.9-16.8-14.76-19.2-3.9 1.9-7.97 1.9-11.86 0-8.85 2.4-14.7 10.07-14.7 19.2z" stroke="#fff" stroke-opacity="0" fill="#3a414a"/><path d="M1030.76 382.68c-2.2 0-4.05-.47-6-1.5-6-3.3-8.22-10.83-4.93-16.85 3.3-6 10.83-8.2 16.87-4.94 6 3.3 8.22 10.8 4.94 16.83-1.2 2.18-2.75 3.75-4.94 4.94-1.9 1.04-3.78 1.5-5.94 1.5zm0-21.7c-3.6-.05-6.7 1.76-8.45 4.94-2.47 4.58-.78 10.34 3.8 12.84 3 1.6 6.28 1.6 9.26 0 3.2-1.74 5.04-4.83 5-8.45-.08-5.2-4.38-9.4-9.6-9.32z" stroke="#fff" stroke-opacity="0" fill="#3a414a"/><path d="M1062.18 373.88h-32.2c-.55 0-1-.45-1-1v-2.14c-.03-7.74 5.1-14.25 12.62-16.08.27-.07.5-.04.75.08 2.4 1.3 5.03 1.3 7.45 0 .2-.12.45-.15.72-.08 7.55 1.8 12.68 8.32 12.65 16.08v2.13c0 .56-.45 1-1 1zm-31.18-2h30.15v-1.14c0-6.66-4.3-12.26-10.77-14-2.83 1.37-5.8 1.37-8.64 0-6.46 1.74-10.74 7.34-10.74 14z" stroke="#fff" stroke-opacity="0" stroke-width=".73" fill="#fff" fill-opacity="0"/><path d="M1031.5 373.88h-32.2c-.54 0-.98-.45-.98-1v-2.14c-.04-7.74 5.1-14.25 12.6-16.08.28-.07.52-.04.76.08 2.4 1.3 5.03 1.3 7.45 0 .2-.12.45-.15.72-.08 7.55 1.8 12.68 8.32 12.65 16.08v2.13c0 .56-.45 1-1 1zm-31.17-2h30.15v-1.14c0-6.66-4.3-12.26-10.77-14-2.82 1.37-5.8 1.37-8.63 0-6.46 1.74-10.74 7.34-10.74 14z" stroke="#fff" stroke-opacity="0" stroke-width=".73" fill="#fff" fill-opacity="0"/><path d="M997.82 372.43H892.84a12 12 0 0 0-12 12v29.55" stroke="#232f3e" fill="none"/><path d="M998.32 372.87l.02.06h-.54v-1h.52zM881.34 414.48h-1v-.52h1z" stroke="#232f3e" stroke-width=".05" fill="#232f3e"/><path d="M880.84 479.83V590.7" stroke="#232f3e" fill="none"/><path d="M881.34 479.85h-1v-.52h1zM881.34 591.2h-1v-.52h1z" stroke="#232f3e" stroke-width=".05" fill="#232f3e"/><path d="M845.74 592.46h70.2v69.2h-70.2z" stroke="#fff" stroke-opacity="0" fill="#693cc5"/><path d="M914.67 593.7v66.72H847V593.7h67.67m2.55-2.5h-72.77v71.73h72.77V591.2z" stroke="#fff" stroke-opacity="0" fill-opacity="0"/><path d="M894.23 631.7c3.92 0 6.27-2.74 6.27-7.3 0-2.82-1.96-5.82-7.4-6.16.2-2.07-.57-3.92-2.2-5.32-.9-.84-2.1-1.22-3.4-.97-1.25-3.7-4.1-5.57-8.45-5.57-.08 0-9.05.13-9.47 10.76-7.5.47-7.6 7.22-7.6 7.26v.38c.13 3.93 3.4 7 7.4 6.93h8.48l-6.2 5.24c-.7-.47-1.47-.72-2.3-.72-2.3 0-4.13 1.8-4.13 4.05 0 2.24 1.84 4.05 4.12 4.05 2.23 0 4.08-1.8 4.08-4.05 0-.76-.2-1.43-.62-2.07l7.6-6.4v8.8c-1.62.35-2.8 1.5-3.16 3.1-.46 2.18.96 4.34 3.16 4.8 2.23.47 4.4-.93 4.9-3.12.45-2.2-.97-4.3-3.17-4.77v-8.8l7.55 6.4c-.42.64-.62 1.3-.62 2.07 0 2.24 1.85 4.05 4.13 4.05 2.26 0 4.07-1.8 4.07-4.05 0-2.24-1.85-4.05-4.12-4.05-.85 0-1.58.25-2.3.72l-6.18-5.24zm-30.5-7.3c0-.2.15-5.57 6.73-5.57.46 0 .85-.38.85-.84 0-9.76 7.48-9.93 7.8-9.93 3.88 0 6.1 1.7 7.04 5.2 0 .03.04.08.07.16.2.42.75.55 1.17.34.85-.38 1.77-.2 2.47.46 1.34 1.14 1.84 2.83 1.42 4.56-.04.08-.04.16-.04.3.04.45.42.83.9.8 4.22 0 6.73 1.68 6.73 4.5 0 2.1-.62 5.62-4.55 5.62h-24.84c-3.04.12-5.62-2.24-5.74-5.24v-.38zm5.65 18.28c-1.34 0-2.38-1.06-2.42-2.37 0-1.3 1.08-2.35 2.4-2.35 1.33 0 2.37 1.06 2.4 2.36 0 1.32-1.07 2.38-2.38 2.38zm14.3 1.9c-.05 1.3-1.12 2.32-2.47 2.32-1.3-.04-2.34-1.1-2.34-2.4.04-1.27 1.12-2.33 2.4-2.33 1.33 0 2.4 1.06 2.4 2.37zm9.47-6.63c1.34 0 2.38 1.06 2.42 2.36 0 1.32-1.08 2.38-2.4 2.38-1.33 0-2.37-1.06-2.4-2.37 0-1.3 1.03-2.35 2.34-2.4h.05z" stroke="#fff" stroke-opacity="0" fill="#fff"/><use xlink:href="#h" transform="matrix(1,0,0,1,814.451666128057,671.928746348595) translate(9.182098765432094 12.444444444444446)"/><use xlink:href="#i" transform="matrix(1,0,0,1,814.451666128057,671.928746348595) translate(90.24382716049382 12.444444444444446)"/><path d="M1129.64 968.62h68.8v71.74h-68.8v-71.74z" stroke="#fff" stroke-opacity="0" stroke-width="2" fill="#3f8624"/><path d="M1186 1006.92c-.26-1.5-1.9-2.54-3.03-3.3-.36-.25-1.32-.63-1.4-.96 0-.24 0-.48.08-.72l.92-6.85.8-6.1c.2-1.8-.62-3.06-2.07-4.1-2.95-2.17-6.82-3.03-10.3-3.6-4.56-.77-8.56-.9-13.18-.43-4.18.28-7.65 1.14-11.52 2.87-1.93.96-4.53 2.44-4.17 5.03.87 7.76 1.97 15.5 2.98 23.27.45 3.55.94 7.1 1.38 10.63.17 1.5.96 2.64 2.28 3.2 2.82 1.6 6.33 2.07 9.54 2.36 4.44.43 8.23.3 12.62-.58 2.64-.47 7.56-1.34 8-4.78.53-4.27 1.1-8.53 1.63-12.8l.22-1.28c1.5.37 5.76 1.18 5.23-1.88zm-23.3-24.43c5.54 0 11.83.66 16.75 3.5.8.42 2.55 1.38 2.02 2.58-.53 1.14-2.2 1.72-3.2 2.15-1.5.57-2.87.96-4.45 1.3-6.86 1.43-12.92 1.57-19.87.43-3.12-.34-5.7-1.16-8.53-2.6-.66-.42-1.76-1.1-1.45-2.05.22-.52.57-.9 1.06-1.2 2.15-1.43 4.13-2.3 6.63-2.77 3.8-.95 7.13-1.38 11.04-1.34zm14.42 40.32c-.18 1.1-1.93 1.67-2.77 1.96-1.85.67-3.47 1.06-5.4 1.3-4.27.57-7.97.57-12.27 0-2.7-.24-4.93-.87-7.35-2.1-.65-.3-1.05-.92-1.1-1.64-.92-7.62-1.93-15.18-2.94-22.75l-1.07-8.25c2.2 1.25 4.23 2 6.7 2.45 2.67.57 4.9.86 7.64 1.05 5.27.38 9.8.14 15.03-.86 2.77-.44 5.06-1.26 7.52-2.65l-1.93 15c-4.94-1.68-8.98-3.36-13.6-5.7-.22-.1-.4-.2-.57-.3-.26-.2-.18-.1-.3-.38-.23-.57-.27-.95-.76-1.43-.43-.34-.92-.48-1.45-.43-1.14.05-2.02 1.1-1.93 2.3.08 1.15 1.1 2.06 2.23 1.97.3-.05.57-.14.93-.3.35-.1.35-.1.7.1 4.7 2.4 8.8 4.17 13.76 5.9.7.24.7 0 .7.62-.04.47-.1.9-.17 1.38l-.58 4.55zm-14.16-22.66c0 .3-.35.25-.44.1-.13-.2.44-.43.44-.1zm18.07 6.7l.27-2.1c.92.58 2.46 1.4 2.9 2.45-.92.4-2.33-.1-3.17-.33z" stroke="#fff" stroke-opacity="0" stroke-width="2" fill="#fff"/><use xlink:href="#j" transform="matrix(1,0,0,1,1099.639988448074,1049.3597557383289) translate(42.91666666666667 12.444444444444446)"/><path d="M563.18 833.56h68.8v71.74h-68.8v-71.74z" stroke="#fff" stroke-opacity="0" stroke-width="2" fill="#3f8624"/><path d="M619.54 871.86c-.26-1.5-1.9-2.54-3.03-3.3-.34-.25-1.3-.63-1.4-.96 0-.25 0-.48.1-.72l.9-6.85c.28-2 .54-4.02.8-6.08.23-1.82-.6-3.07-2.06-4.12-2.95-2.16-6.8-3.02-10.3-3.6-4.56-.76-8.56-.9-13.18-.43-4.17.3-7.65 1.15-11.5 2.88-1.95.96-4.54 2.44-4.2 5.03.9 7.76 2 15.52 3 23.28.44 3.54.92 7.1 1.36 10.63.18 1.5.97 2.65 2.3 3.22 2.8 1.58 6.32 2.06 9.53 2.35 4.44.43 8.22.3 12.62-.58 2.63-.5 7.56-1.35 8-4.8.52-4.26 1.1-8.52 1.62-12.78l.2-1.3c1.5.4 5.77 1.2 5.24-1.86zm-23.3-24.43c5.54 0 11.83.67 16.75 3.5.78.43 2.54 1.4 2.02 2.58-.53 1.16-2.2 1.74-3.2 2.17-1.5.57-2.87.96-4.45 1.3-6.86 1.43-12.93 1.57-19.88.42-3.13-.34-5.72-1.16-8.53-2.6-.66-.42-1.76-1.1-1.46-2.05.24-.53.6-.9 1.07-1.2 2.15-1.44 4.13-2.3 6.64-2.78 3.8-.95 7.13-1.4 11.04-1.34zm14.42 40.33c-.17 1.1-1.93 1.67-2.77 1.96-1.85.67-3.48 1.05-5.4 1.3-4.28.57-7.97.57-12.28 0-2.68-.25-4.92-.87-7.34-2.1-.66-.3-1.06-.92-1.1-1.64-.92-7.62-1.93-15.18-2.95-22.75l-1.05-8.24c2.2 1.24 4.22 2 6.68 2.44 2.68.57 4.92.86 7.65 1.05 5.3.37 9.8.13 15.05-.87 2.77-.43 5.05-1.25 7.5-2.64l-1.92 14.98c-4.92-1.67-8.97-3.35-13.6-5.7l-.56-.28c-.26-.2-.17-.1-.3-.4-.22-.56-.27-.94-.75-1.42-.44-.34-.92-.48-1.45-.44-1.15.05-2.03 1.1-1.94 2.3.1 1.15 1.1 2.06 2.25 1.97.3-.04.57-.14.92-.28.35-.1.35-.1.7.1 4.7 2.4 8.8 4.16 13.76 5.9.7.23.7 0 .7.6-.04.5-.08.92-.17 1.4l-.58 4.55zM596.5 865.1c0 .3-.34.24-.43.1-.13-.2.44-.43.44-.1zm18.08 6.7l.26-2.1c.92.58 2.46 1.4 2.9 2.44-.92.4-2.33-.1-3.16-.33z" stroke="#fff" stroke-opacity="0" stroke-width="2" fill="#fff"/><use xlink:href="#e" transform="matrix(1,0,0,1,533.1836933418924,914.2984823488891) translate(48.96604938271605 12.444444444444446)"/><path d="M563.18 968.62h68.8v71.74h-68.8v-71.74z" stroke="#fff" stroke-opacity="0" stroke-width="2" fill="#3f8624"/><path d="M619.54 1006.92c-.26-1.5-1.9-2.54-3.03-3.3-.34-.25-1.3-.63-1.4-.96 0-.24 0-.48.1-.72l.9-6.85c.28-2.02.54-4.03.8-6.1.23-1.8-.6-3.06-2.06-4.1-2.95-2.17-6.8-3.03-10.3-3.6-4.56-.77-8.56-.9-13.18-.43-4.17.28-7.65 1.14-11.5 2.87-1.95.96-4.54 2.44-4.2 5.03.9 7.76 2 15.5 3 23.27.44 3.55.92 7.1 1.36 10.63.18 1.5.97 2.64 2.3 3.2 2.8 1.6 6.32 2.07 9.53 2.36 4.44.43 8.22.3 12.62-.58 2.63-.47 7.56-1.34 8-4.78.52-4.27 1.1-8.53 1.62-12.8l.2-1.28c1.5.37 5.77 1.18 5.24-1.88zm-23.3-24.43c5.54 0 11.83.66 16.75 3.5.78.42 2.54 1.38 2.02 2.58-.53 1.14-2.2 1.72-3.2 2.15-1.5.57-2.87.96-4.45 1.3-6.86 1.43-12.93 1.57-19.88.43-3.13-.34-5.72-1.16-8.53-2.6-.66-.42-1.76-1.1-1.46-2.05.24-.52.6-.9 1.07-1.2 2.15-1.43 4.13-2.3 6.64-2.77 3.8-.95 7.13-1.38 11.04-1.34zm14.42 40.32c-.17 1.1-1.93 1.67-2.77 1.96-1.85.67-3.48 1.06-5.4 1.3-4.28.57-7.97.57-12.28 0-2.68-.24-4.92-.87-7.34-2.1-.66-.3-1.06-.92-1.1-1.64-.92-7.62-1.93-15.18-2.95-22.75l-1.05-8.25c2.2 1.25 4.22 2 6.68 2.45 2.68.57 4.92.86 7.65 1.05 5.3.38 9.8.14 15.05-.86 2.77-.44 5.05-1.26 7.5-2.65l-1.92 15c-4.92-1.68-8.97-3.36-13.6-5.7l-.56-.3c-.26-.2-.17-.1-.3-.38-.22-.57-.27-.95-.75-1.43-.44-.34-.92-.48-1.45-.43-1.15.05-2.03 1.1-1.94 2.3.1 1.15 1.1 2.06 2.25 1.97.3-.05.57-.14.92-.3.35-.1.35-.1.7.1 4.7 2.4 8.8 4.17 13.76 5.9.7.24.7 0 .7.62-.04.47-.08.9-.17 1.38l-.58 4.55zm-14.15-22.66c0 .3-.34.25-.43.1-.13-.2.44-.43.44-.1zm18.08 6.7l.26-2.1c.92.58 2.46 1.4 2.9 2.45-.92.4-2.33-.1-3.16-.33z" stroke="#fff" stroke-opacity="0" stroke-width="2" fill="#fff"/><use xlink:href="#j" transform="matrix(1,0,0,1,533.1836933418924,1049.3597557385015) translate(42.91666666666667 12.444444444444446)"/><path d="M917.72 627.06h250.03" stroke="#232f3e" fill="none"/><path d="M917.74 627.56h-.52v-1h.5z" stroke="#232f3e" stroke-width=".05" fill="#232f3e"/><path d="M1182.5 627.06l-14.25 4.64v-9.28z" stroke="#232f3e" fill="#232f3e"/><path d="M1184.13 591.2h71.74v71.73h-71.74V591.2z" stroke="#fff" stroke-opacity="0" stroke-width="2" fill="#d86613"/><path d="M1242 650.97h-11.8c-.37 0-.68-.2-.83-.52l-16.68-34.87h-7.06c-.53 0-.95-.43-.95-.95V604.1c0-.52.4-.95.94-.95h14.74c.38 0 .7.2.84.52l16.6 34.87h4.18c.54 0 .96.43.96.96V650c0 .52-.42.95-.96.95zm-11.18-1.9h10.22v-8.62h-3.83c-.37 0-.67-.2-.83-.53l-16.6-34.86h-13.17v8.6h6.7c.38 0 .7.2.88.54z" stroke="#fff" stroke-opacity="0" stroke-width="2" fill="#fff"/><path d="M1210.4 650.97H1198c-.33 0-.63-.17-.82-.43-.2-.32-.2-.67-.04-.96l13-27.18c.16-.35.5-.55.86-.55.38 0 .7.2.87.52l6.22 12.82c.15.25.15.54 0 .83l-6.8 14.33c-.12.38-.46.6-.86.6zm-10.9-1.92h10.32l6.32-13.37-5.14-10.7z" stroke="#fff" stroke-opacity="0" stroke-width="2" fill="#fff"/><use xlink:href="#k" transform="matrix(1,0,0,1,1154.131761334388,671.928746348595) translate(12.765432098765444 13.61111111111111)"/><path d="M933.75 416.87c0 9.32-7.56 16.88-16.88 16.88S900 426.2 900 416.87c0-9.3 7.55-16.87 16.87-16.87s16.88 7.56 16.88 16.87z" stroke="#000" stroke-opacity="0" fill="#1071e5"/><use xlink:href="#l" transform="matrix(1,0,0,1,905,405) translate(5.8321604938271605 19.27777777777778)"/><path d="M933.75 596.87c0 9.32-7.56 16.88-16.88 16.88S900 606.2 900 596.87 907.55 580 916.87 580s16.88 7.55 16.88 16.87z" stroke="#000" stroke-opacity="0" fill="#1071e5"/><use xlink:href="#m" transform="matrix(1,0,0,1,905,585) translate(5.8321604938271605 19.27777777777778)"/><path d="M1273.75 596.87c0 9.32-7.56 16.88-16.88 16.88-9.3 0-16.87-7.56-16.87-16.88s7.56-16.87 16.87-16.87c9.32 0 16.88 7.55 16.88 16.87z" stroke="#000" stroke-opacity="0" fill="#1071e5"/><use xlink:href="#n" transform="matrix(1,0,0,1,1245,585) translate(5.8321604938271605 19.27777777777778)"/><path d="M880.84 663.43V934a6 6 0 0 1-6 6H740.5" stroke="#232f3e" fill="none"/><path d="M881.34 663.44h-1v-.5h1z" stroke="#232f3e" stroke-width=".05" fill="#232f3e"/><path d="M740.5 940h-.5M648.38 869.43H694a6 6 0 0 1 6 6V934a6 6 0 0 0 6 6h33.5" stroke="#232f3e" fill="none"/><path d="M633.6 869.43l14.28-4.63v9.27z" stroke="#232f3e" fill="#232f3e"/><path d="M739.5 940h.5M648.38 1004.5H694a6 6 0 0 0 6-6V946a6 6 0 0 1 6-6h33.5" stroke="#232f3e" fill="none"/><path d="M633.6 1004.5l14.28-4.64v9.27z" stroke="#232f3e" fill="#232f3e"/><path d="M739.5 940h.5M880.84 663.43V934a6 6 0 0 0 6 6h152.66" stroke="#232f3e" fill="none"/><path d="M881.34 663.44h-1v-.5h1z" stroke="#232f3e" stroke-width=".05" fill="#232f3e"/><path d="M1039.5 940h.5M1113.26 869.43H1066a6 6 0 0 0-6 6V934a6 6 0 0 1-6 6h-13.5" stroke="#232f3e" fill="none"/><path d="M1128.02 869.43l-14.26 4.64v-9.28z" stroke="#232f3e" fill="#232f3e"/><path d="M1040.5 940h-.5M1113.26 1004.5H1066a6 6 0 0 1-6-6V946a6 6 0 0 0-6-6h-13.5" stroke="#232f3e" fill="none"/><path d="M1128.02 1004.5l-14.26 4.63v-9.27z" stroke="#232f3e" fill="#232f3e"/><path d="M1040.5 940h-.5" stroke="#232f3e" fill="none"/><path d="M653.75 836.87c0 9.32-7.56 16.88-16.88 16.88S620 846.2 620 836.87 627.55 820 636.87 820s16.88 7.55 16.88 16.87z" stroke="#000" stroke-opacity="0" fill="#1071e5"/><use xlink:href="#o" transform="matrix(1,0,0,1,625,825) translate(5.8321604938271605 19.27777777777778)"/><path d="M1217.88 836.87c0 9.32-7.56 16.88-16.87 16.88-9.3 0-16.87-7.56-16.87-16.88S1191.7 820 1201 820c9.33 0 16.88 7.55 16.88 16.87z" stroke="#000" stroke-opacity="0" fill="#1071e5"/><use xlink:href="#o" transform="matrix(1,0,0,1,1189.1317613343708,825) translate(5.8321604938271605 19.27777777777778)"/><path d="M653.75 976.87c0 9.32-7.56 16.88-16.88 16.88S620 986.2 620 976.87 627.55 960 636.87 960s16.88 7.55 16.88 16.87z" stroke="#000" stroke-opacity="0" fill="#1071e5"/><use xlink:href="#o" transform="matrix(1,0,0,1,624.9999999999737,964.9999999999737) translate(5.8321604938271605 19.27777777777778)"/><path d="M1217.88 976.87c0 9.32-7.56 16.88-16.87 16.88-9.3 0-16.87-7.56-16.87-16.88S1191.7 960 1201 960c9.33 0 16.88 7.55 16.88 16.87z" stroke="#000" stroke-opacity="0" fill="#1071e5"/><g><use xlink:href="#o" transform="matrix(1,0,0,1,1189.1317613343447,964.9999999999737) translate(5.8321604938271605 19.27777777777778)"/></g><defs><path fill="#333" d="M199 0l-22-63H83L61 0H9l90-248h61L250 0h-51zm-33-102l-36-108c-10 38-24 72-36 108h72" id="p"/><path fill="#333" d="M275 0h-61l-44-196L126 0H64L0-248h53L97-49l45-199h58l43 199 44-199h52" id="q"/><path fill="#333" d="M169-182c-1-43-94-46-97-3 18 66 151 10 154 114 3 95-165 93-204 36-6-8-10-19-12-30l50-8c3 46 112 56 116 5-17-69-150-10-154-114-4-87 153-88 188-35 5 8 8 18 10 28" id="r"/><g id="a"><use transform="matrix(0.04320987654320988,0,0,0.04320987654320988,0,0)" xlink:href="#p"/><use transform="matrix(0.04320987654320988,0,0,0.04320987654320988,10.327160493827162,0)" xlink:href="#q"/><use transform="matrix(0.04320987654320988,0,0,0.04320987654320988,24.97530864197531,0)" xlink:href="#r"/></g><path fill="#333" d="M67-125c0 53 21 87 73 88 37 1 54-22 65-47l45 17C233-25 199 4 140 4 58 4 20-42 15-125 8-235 124-281 211-232c18 10 29 29 36 50l-46 12c-8-25-30-41-62-41-52 0-71 34-72 86" id="s"/><path fill="#333" d="M25 0v-261h50V0H25" id="t"/><path fill="#333" d="M110-194c64 0 96 36 96 99 0 64-35 99-97 99-61 0-95-36-95-99 0-62 34-99 96-99zm-1 164c35 0 45-28 45-65 0-40-10-65-43-65-34 0-45 26-45 65 0 36 10 65 43 65" id="u"/><path fill="#333" d="M85 4C-2 5 27-109 22-190h50c7 57-23 150 33 157 60-5 35-97 40-157h50l1 190h-47c-2-12 1-28-3-38-12 25-28 42-61 42" id="v"/><path fill="#333" d="M88-194c31-1 46 15 58 34l-1-101h50l1 261h-48c-2-10 0-23-3-31C134-8 116 4 84 4 32 4 16-41 15-95c0-56 19-97 73-99zm17 164c33 0 40-30 41-66 1-37-9-64-41-64s-38 30-39 65c0 43 13 65 39 65" id="w"/><g id="b"><use transform="matrix(0.04320987654320988,0,0,0.04320987654320988,0,0)" xlink:href="#s"/><use transform="matrix(0.04320987654320988,0,0,0.04320987654320988,11.19135802469136,0)" xlink:href="#t"/><use transform="matrix(0.04320987654320988,0,0,0.04320987654320988,15.512345679012347,0)" xlink:href="#u"/><use transform="matrix(0.04320987654320988,0,0,0.04320987654320988,24.97530864197531,0)" xlink:href="#v"/><use transform="matrix(0.04320987654320988,0,0,0.04320987654320988,34.43827160493827,0)" xlink:href="#w"/></g><path fill="#232f3e" d="M24 0v-248h195v40H76v63h132v40H76v65h150V0H24" id="x"/><path fill="#232f3e" d="M133-34C117-15 103 5 69 4 32 3 11-16 11-54c-1-60 55-63 116-61 1-26-3-47-28-47-18 1-26 9-28 27l-52-2c7-38 36-58 82-57s74 22 75 68l1 82c-1 14 12 18 25 15v27c-30 8-71 5-69-32zm-48 3c29 0 43-24 42-57-32 0-66-3-65 30 0 17 8 27 23 27" id="y"/><path fill="#232f3e" d="M137-138c1-29-70-34-71-4 15 46 118 7 119 86 1 83-164 76-172 9l43-7c4 19 20 25 44 25 33 8 57-30 24-41C81-84 22-81 20-136c-2-80 154-74 161-7" id="z"/><path fill="#232f3e" d="M115-3C79 11 28 4 28-45v-112H4v-33h27l15-45h31v45h36v33H77v99c-1 23 16 31 38 25v30" id="A"/><g id="c"><use transform="matrix(0.04320987654320988,0,0,0.04320987654320988,0,0)" xlink:href="#x"/><use transform="matrix(0.04320987654320988,0,0,0.04320987654320988,10.370370370370372,0)" xlink:href="#y"/><use transform="matrix(0.04320987654320988,0,0,0.04320987654320988,19.01234567901235,0)" xlink:href="#z"/><use transform="matrix(0.04320987654320988,0,0,0.04320987654320988,27.654320987654323,0)" xlink:href="#A"/></g><path fill="#232f3e" d="M275 0h-61l-44-196L126 0H64L0-248h53L97-49l45-199h58l43 199 44-199h52" id="B"/><path fill="#232f3e" d="M185-48c-13 30-37 53-82 52C43 2 14-33 14-96s30-98 90-98c62 0 83 45 84 108H66c0 31 8 55 39 56 18 0 30-7 34-22zm-45-69c5-46-57-63-70-21-2 6-4 13-4 21h74" id="C"/><g id="d"><use transform="matrix(0.04320987654320988,0,0,0.04320987654320988,0,0)" xlink:href="#B"/><use transform="matrix(0.04320987654320988,0,0,0.04320987654320988,14.34567901234568,0)" xlink:href="#C"/><use transform="matrix(0.04320987654320988,0,0,0.04320987654320988,22.987654320987655,0)" xlink:href="#z"/><use transform="matrix(0.04320987654320988,0,0,0.04320987654320988,31.629629629629633,0)" xlink:href="#A"/></g><path fill="#232f3e" d="M160-131c35 5 61 23 61 61C221 17 115-2 30 0v-248c76 3 177-17 177 60 0 33-19 50-47 57zm-97-11c50-1 110 9 110-42 0-47-63-36-110-37v79zm0 115c55-2 124 14 124-45 0-56-70-42-124-44v89" id="D"/><path fill="#232f3e" d="M24 0v-261h32V0H24" id="E"/><path fill="#232f3e" d="M84 4C-5 8 30-112 23-190h32v120c0 31 7 50 39 49 72-2 45-101 50-169h31l1 190h-30c-1-10 1-25-2-33-11 22-28 36-60 37" id="F"/><path fill="#232f3e" d="M100-194c63 0 86 42 84 106H49c0 40 14 67 53 68 26 1 43-12 49-29l28 8c-11 28-37 45-77 45C44 4 14-33 15-96c1-61 26-98 85-98zm52 81c6-60-76-77-97-28-3 7-6 17-6 28h103" id="G"/><g id="e"><use transform="matrix(0.04320987654320988,0,0,0.04320987654320988,0,0)" xlink:href="#D"/><use transform="matrix(0.04320987654320988,0,0,0.04320987654320988,10.370370370370372,0)" xlink:href="#E"/><use transform="matrix(0.04320987654320988,0,0,0.04320987654320988,13.783950617283953,0)" xlink:href="#F"/><use transform="matrix(0.04320987654320988,0,0,0.04320987654320988,22.425925925925934,0)" xlink:href="#G"/></g><path fill="#232f3e" d="M233-177c-1 41-23 64-60 70L243 0h-38l-65-103H63V0H30v-248c88 3 205-21 203 71zM63-129c60-2 137 13 137-47 0-61-80-42-137-45v92" id="H"/><path fill="#232f3e" d="M100-194c62-1 85 37 85 99 1 63-27 99-86 99S16-35 15-95c0-66 28-99 85-99zM99-20c44 1 53-31 53-75 0-43-8-75-51-75s-53 32-53 75 10 74 51 75" id="I"/><path fill="#232f3e" d="M59-47c-2 24 18 29 38 22v24C64 9 27 4 27-40v-127H5v-23h24l9-43h21v43h35v23H59v120" id="J"/><path fill="#232f3e" d="M54-142c48-35 137-8 131 61C196 18 31 33 14-55l32-4c7 23 22 37 52 37 35-1 51-22 54-58 4-55-73-65-99-34H22l8-134h141v27H59" id="K"/><path fill="#232f3e" d="M126-127c33 6 58 20 58 59 0 88-139 92-164 29-3-8-5-16-6-25l32-3c6 27 21 44 54 44 32 0 52-15 52-46 0-38-36-46-79-43v-28c39 1 72-4 72-42 0-27-17-43-46-43-28 0-47 15-49 41l-32-3c6-42 35-63 81-64 48-1 79 21 79 65 0 36-21 52-52 59" id="L"/><g id="f"><use transform="matrix(0.04320987654320988,0,0,0.04320987654320988,0,0)" xlink:href="#H"/><use transform="matrix(0.04320987654320988,0,0,0.04320987654320988,11.19135802469136,0)" xlink:href="#I"/><use transform="matrix(0.04320987654320988,0,0,0.04320987654320988,19.833333333333336,0)" xlink:href="#F"/><use transform="matrix(0.04320987654320988,0,0,0.04320987654320988,28.47530864197531,0)" xlink:href="#J"/><use transform="matrix(0.04320987654320988,0,0,0.04320987654320988,32.7962962962963,0)" xlink:href="#G"/><use transform="matrix(0.04320987654320988,0,0,0.04320987654320988,41.43827160493827,0)" xlink:href="#K"/><use transform="matrix(0.04320987654320988,0,0,0.04320987654320988,50.08024691358024,0)" xlink:href="#L"/></g><path fill="#232f3e" d="M30-248c118-7 216 8 213 122C240-48 200 0 122 0H30v-248zM63-27c89 8 146-16 146-99s-60-101-146-95v194" id="M"/><path fill="#232f3e" d="M190 0L58-211 59 0H30v-248h39L202-35l-2-213h31V0h-41" id="N"/><path fill="#232f3e" d="M185-189c-5-48-123-54-124 2 14 75 158 14 163 119 3 78-121 87-175 55-17-10-28-26-33-46l33-7c5 56 141 63 141-1 0-78-155-14-162-118-5-82 145-84 179-34 5 7 8 16 11 25" id="O"/><g id="g"><use transform="matrix(0.04320987654320988,0,0,0.04320987654320988,0,0)" xlink:href="#M"/><use transform="matrix(0.04320987654320988,0,0,0.04320987654320988,11.19135802469136,0)" xlink:href="#N"/><use transform="matrix(0.04320987654320988,0,0,0.04320987654320988,22.38271604938272,0)" xlink:href="#O"/></g><path fill="#232f3e" d="M212-179c-10-28-35-45-73-45-59 0-87 40-87 99 0 60 29 101 89 101 43 0 62-24 78-52l27 14C228-24 195 4 139 4 59 4 22-46 18-125c-6-104 99-153 187-111 19 9 31 26 39 46" id="P"/><path fill="#232f3e" d="M85-194c31 0 48 13 60 33l-1-100h32l1 261h-30c-2-10 0-23-3-31C134-8 116 4 85 4 32 4 16-35 15-94c0-66 23-100 70-100zm9 24c-40 0-46 34-46 75 0 40 6 74 45 74 42 0 51-32 51-76 0-42-9-74-50-73" id="Q"/><path fill="#232f3e" d="M63-220v92h138v28H63V0H30v-248h175v28H63" id="R"/><path fill="#232f3e" d="M114-163C36-179 61-72 57 0H25l-1-190h30c1 12-1 29 2 39 6-27 23-49 58-41v29" id="S"/><path fill="#232f3e" d="M117-194c89-4 53 116 60 194h-32v-121c0-31-8-49-39-48C34-167 62-67 57 0H25l-1-190h30c1 10-1 24 2 32 11-22 29-35 61-36" id="T"/><g id="h"><use transform="matrix(0.04320987654320988,0,0,0.04320987654320988,0,0)" xlink:href="#P"/><use transform="matrix(0.04320987654320988,0,0,0.04320987654320988,11.19135802469136,0)" xlink:href="#E"/><use transform="matrix(0.04320987654320988,0,0,0.04320987654320988,14.60493827160494,0)" xlink:href="#I"/><use transform="matrix(0.04320987654320988,0,0,0.04320987654320988,23.246913580246915,0)" xlink:href="#F"/><use transform="matrix(0.04320987654320988,0,0,0.04320987654320988,31.888888888888893,0)" xlink:href="#Q"/><use transform="matrix(0.04320987654320988,0,0,0.04320987654320988,40.53086419753087,0)" xlink:href="#R"/><use transform="matrix(0.04320987654320988,0,0,0.04320987654320988,49.99382716049383,0)" xlink:href="#S"/><use transform="matrix(0.04320987654320988,0,0,0.04320987654320988,55.13580246913581,0)" xlink:href="#I"/><use transform="matrix(0.04320987654320988,0,0,0.04320987654320988,63.77777777777777,0)" xlink:href="#T"/><use transform="matrix(0.04320987654320988,0,0,0.04320987654320988,72.41975308641976,0)" xlink:href="#J"/></g><g id="i"><use transform="matrix(0.04320987654320988,0,0,0.04320987654320988,0,0)" xlink:href="#P"/><use transform="matrix(0.04320987654320988,0,0,0.04320987654320988,11.19135802469136,0)" xlink:href="#M"/><use transform="matrix(0.04320987654320988,0,0,0.04320987654320988,22.38271604938272,0)" xlink:href="#N"/></g><path fill="#232f3e" d="M143 4C61 4 22-44 18-125c-5-107 100-154 193-111 17 8 29 25 37 43l-32 9c-13-25-37-40-76-40-61 0-88 39-88 99 0 61 29 100 91 101 35 0 62-11 79-27v-45h-74v-28h105v86C228-13 192 4 143 4" id="U"/><g id="j"><use transform="matrix(0.04320987654320988,0,0,0.04320987654320988,0,0)" xlink:href="#U"/><use transform="matrix(0.04320987654320988,0,0,0.04320987654320988,12.098765432098766,0)" xlink:href="#S"/><use transform="matrix(0.04320987654320988,0,0,0.04320987654320988,17.24074074074074,0)" xlink:href="#G"/><use transform="matrix(0.04320987654320988,0,0,0.04320987654320988,25.882716049382715,0)" xlink:href="#G"/><use transform="matrix(0.04320987654320988,0,0,0.04320987654320988,34.52469135802469,0)" xlink:href="#T"/></g><path fill="#232f3e" d="M30 0v-248h33v221h125V0H30" id="V"/><path fill="#232f3e" d="M141-36C126-15 110 5 73 4 37 3 15-17 15-53c-1-64 63-63 125-63 3-35-9-54-41-54-24 1-41 7-42 31l-33-3c5-37 33-52 76-52 45 0 72 20 72 64v82c-1 20 7 32 28 27v20c-31 9-61-2-59-35zM48-53c0 20 12 33 32 33 41-3 63-29 60-74-43 2-92-5-92 41" id="W"/><path fill="#232f3e" d="M210-169c-67 3-38 105-44 169h-31v-121c0-29-5-50-35-48C34-165 62-65 56 0H25l-1-190h30c1 10-1 24 2 32 10-44 99-50 107 0 11-21 27-35 58-36 85-2 47 119 55 194h-31v-121c0-29-5-49-35-48" id="X"/><path fill="#232f3e" d="M115-194c53 0 69 39 70 98 0 66-23 100-70 100C84 3 66-7 56-30L54 0H23l1-261h32v101c10-23 28-34 59-34zm-8 174c40 0 45-34 45-75 0-40-5-75-45-74-42 0-51 32-51 76 0 43 10 73 51 73" id="Y"/><path fill="#232f3e" d="M198-261c85 0 136 45 136 128 0 61-22 111-78 115-29 2-39-18-37-44-12 23-32 44-66 44-41 0-58-28-58-68 0-60 30-105 88-108 29-1 43 15 54 32l7-28h28c-9 45-23 84-27 134-1 11 6 17 14 16 39-4 51-48 51-92 0-69-42-107-112-107-93 0-145 59-145 153C53-15 94 26 168 27c43 0 78-13 106-28l9 19c-30 18-67 32-115 32C79 50 28-1 28-86c0-107 62-175 170-175zM158-41c46 0 70-43 70-90 0-26-17-40-43-40-44 0-59 41-61 85-1 26 9 45 34 45" id="Z"/><path fill="#232f3e" d="M177-190C167-65 218 103 67 71c-23-6-38-20-44-43l32-5c15 47 100 32 89-28v-30C133-14 115 1 83 1 29 1 15-40 15-95c0-56 16-97 71-98 29-1 48 16 59 35 1-10 0-23 2-32h30zM94-22c36 0 50-32 50-73 0-42-14-75-50-75-39 0-46 34-46 75s6 73 46 73" id="aa"/><g id="k"><use transform="matrix(0.04320987654320987,0,0,0.04320987654320987,0,0)" xlink:href="#V"/><use transform="matrix(0.04320987654320987,0,0,0.04320987654320987,8.641975308641973,0)" xlink:href="#W"/><use transform="matrix(0.04320987654320987,0,0,0.04320987654320987,17.283950617283946,0)" xlink:href="#X"/><use transform="matrix(0.04320987654320987,0,0,0.04320987654320987,30.2037037037037,0)" xlink:href="#Y"/><use transform="matrix(0.04320987654320987,0,0,0.04320987654320987,38.84567901234567,0)" xlink:href="#Q"/><use transform="matrix(0.04320987654320987,0,0,0.04320987654320987,47.487654320987644,0)" xlink:href="#W"/><use transform="matrix(0.04320987654320987,0,0,0.04320987654320987,56.12962962962962,0)" xlink:href="#Z"/><use transform="matrix(0.04320987654320987,0,0,0.04320987654320987,71.90123456790121,0)" xlink:href="#G"/><use transform="matrix(0.04320987654320987,0,0,0.04320987654320987,80.54320987654319,0)" xlink:href="#Q"/><use transform="matrix(0.04320987654320987,0,0,0.04320987654320987,89.18518518518516,0)" xlink:href="#aa"/><use transform="matrix(0.04320987654320987,0,0,0.04320987654320987,97.82716049382714,0)" xlink:href="#G"/></g><path fill="#fff" d="M23 0v-37h61v-169l-59 37v-38l62-41h46v211h57V0H23" id="ab"/><use transform="matrix(0.06172839506172839,0,0,0.06172839506172839,0,0)" xlink:href="#ab" id="l"/><path fill="#fff" d="M182-182c0 78-84 86-111 141h115V0H12c-6-101 99-100 120-180 1-22-12-31-33-32-23 0-32 14-35 34l-49-3c5-45 32-70 84-70 51 0 83 22 83 69" id="ac"/><use transform="matrix(0.06172839506172839,0,0,0.06172839506172839,0,0)" xlink:href="#ac" id="m"/><path fill="#fff" d="M128-127c34 4 56 21 59 58 7 91-148 94-172 28-4-9-6-17-7-26l51-5c1 24 16 35 40 36 23 0 39-12 38-36-1-31-31-36-65-34v-40c32 2 59-3 59-33 0-20-13-33-34-33s-33 13-35 32l-50-3c6-44 37-68 86-68 50 0 83 20 83 66 0 35-22 52-53 58" id="ad"/><use transform="matrix(0.06172839506172839,0,0,0.06172839506172839,0,0)" xlink:href="#ad" id="n"/><path fill="#fff" d="M165-50V0h-47v-50H5v-38l105-160h55v161h33v37h-33zm-47-37l2-116L46-87h72" id="ae"/><use transform="matrix(0.06172839506172839,0,0,0.06172839506172839,0,0)" xlink:href="#ae" id="o"/></defs></g></svg>